<?xml version="1.0" encoding="UTF-8" standalone="no"?>
<svg xmlns="http://www.w3.org/2000/svg" viewBox="0 0 200 100" width="200" height="100">
  <!-- Hospital Building -->
  <rect x="60" y="30" width="80" height="60" fill="#2196F3" rx="2" ry="2" />
  
  <!-- Hospital Windows -->
  <rect x="70" y="40" width="15" height="15" fill="#E8F4FD" rx="1" ry="1" />
  <rect x="95" y="40" width="15" height="15" fill="#E8F4FD" rx="1" ry="1" />
  <rect x="115" y="40" width="15" height="15" fill="#E8F4FD" rx="1" ry="1" />
  
  <rect x="70" y="65" width="15" height="15" fill="#E8F4FD" rx="1" ry="1" />
  <rect x="95" y="65" width="15" height="15" fill="#E8F4FD" rx="1" ry="1" />
  <rect x="115" y="65" width="15" height="15" fill="#E8F4FD" rx="1" ry="1" />
  
  <!-- Hospital Entrance -->
  <rect x="90" y="70" width="20" height="20" fill="#E8F4FD" rx="1" ry="1" />
  
  <!-- Red Cross Symbol -->
  <rect x="95" y="10" width="10" height="30" fill="#F44336" rx="2" ry="2" />
  <rect x="85" y="20" width="30" height="10" fill="#F44336" rx="2" ry="2" />
  
  <!-- Heartbeat Line -->
  <path d="M40,80 L50,80 L55,60 L65,95 L75,50 L85,80 L100,80 L105,60 L115,95 L125,50 L135,80 L160,80" 
        stroke="#4CAF50" 
        stroke-width="2" 
        fill="none" />
</svg>